=~=~=~=~=~=~=~=~=~=~=~= PuTTY log 2020.09.23 13:48:10 =~=~=~=~=~=~=~=~=~=~=~=
login as: jasochen
Pre-authentication banner message from server:
| Access to Brooklyn College computers is restricted to authorized users
|         and approved educational and research purposes, only.
End of banner message from server
jasochen@146.245.252.30's password: 
Last login: Wed Sep 23 13:41:23 2020 from <ommited IP>.nycmny.fios.verizon.net
]0;jasochen@sol30:~[?1034h[jasochen@sol30 ~]$ cd CS3140
]0;jasochen@sol30:~/CS3140[jasochen@sol30 CS3140]$ ls Lab5[K[K[K[K[K[K[Kcd Lab5
]0;jasochen@sol30:~/CS3140/Lab5[jasochen@sol30 Lab5]$ wget https://d3jbhadj57dczt.cloudfront.net/preview-786421 -I4uK0sZxaI-high.mp4
--2020-09-23 13:48:38--  https://d3jbhadj57dczt.cloudfront.net/preview-786421-I4uK0sZxaI-high.mp4
Resolving d3jbhadj57dczt.cloudfront.net (d3jbhadj57dczt.cloudfront.net)... 13.225.231.120, 13.225.231.44, 13.225.231.154, ...
Connecting to d3jbhadj57dczt.cloudfront.net (d3jbhadj57dczt.cloudfront.net)|13.225.231.120|:443... connected.
HTTP request sent, awaiting response... 200 OK
Length: 4656643 (4.4M) [video/mp4]
Saving to: ‘preview-786421-I4uK0sZxaI-high.mp4’

 0% [                                       ] 0           --.-K/s              25% [=========>                             ] 1,200,711   5.72MB/s             49% [==================>                    ] 2,298,439   5.46MB/s             75% [============================>          ] 3,494,471   5.54MB/s             100%[======================================>] 4,656,643   5.57MB/s   in 0.8s   

2020-09-23 13:48:45 (5.57 MB/s) - ‘preview-786421-I4uK0sZxaI-high.mp4’ saved [4656643/4656643]

]0;jasochen@sol30:~/CS3140/Lab5[jasochen@sol30 Lab5]$ ls
data.csv  [0m[01;32mLab5Task2.sh[0m  [01;35mpreview-786421-I4uK0sZxaI-high.mp4[0m
]0;jasochen@sol30:~/CS3140/Lab5[jasochen@sol30 Lab5]$ mv preview-786421-I4uK0sZxaI-high.mp4 video.mp4
]0;jasochen@sol30:~/CS3140/Lab5[jasochen@sol30 Lab5]$ ls
data.csv  [0m[01;32mLab5Task2.sh[0m  [01;35mvideo.mp4[0m 
]0;jasochen@sol30:~/CS3140/Lab5[jasochen@sol30 Lab5]$ ffmpeg -i video.mp4 -vf "fps=10,scale=320:-1:flags=lanczos" -c:v pam -f image2pipe - | convert -delay 10 - -loop 0 -layers optimize sample.gif
ffmpeg version 2.8.15 Copyright (c) 2000-2018 the FFmpeg developers
  built with gcc 4.8.5 (GCC) 20150623 (Red Hat 4.8.5-36)
  configuration: --prefix=/usr --bindir=/usr/bin --datadir=/usr/share/ffmpeg --incdir=/usr/include/ffmpeg --libdir=/usr/lib64 --mandir=/usr/share/man --arch=x86_64 --optflags='-O2 -g -pipe -Wall -Wp,-D_FORTIFY_SOURCE=2 -fexceptions -fstack-protector-strong --param=ssp-buffer-size=4 -grecord-gcc-switches -m64 -mtune=generic' --extra-ldflags='-Wl,-z,relro ' --enable-libopencore-amrnb --enable-libopencore-amrwb --enable-libvo-amrwbenc --enable-version3 --enable-bzlib --disable-crystalhd --enable-gnutls --enable-ladspa --enable-libass --enable-libcdio --enable-libdc1394 --enable-libfdk-aac --enable-nonfree --disable-indev=jack --enable-libfreetype --enable-libgsm --enable-libmp3lame --enable-openal --enable-libopenjpeg --enable-libopus --enable-libpulse --enable-libschroedinger --enable-libsoxr --enable-libspeex --enable-libtheora --enable-libvorbis --enable-libv4l2 --enable-libx264 --enable-libx265 --enable-libxvid --enable-x11grab --enable-avfilter --enable-avresample --enable-postproc --enable-pthreads --disable-static --enable-shared --enable-gpl --disable-debug --disable-stripping --shlibdir=/usr/lib64 --enable-runtime-cpudetect
  libavutil      54. 31.100 / 54. 31.100
  libavcodec     56. 60.100 / 56. 60.100
  libavformat    56. 40.101 / 56. 40.101
  libavdevice    56.  4.100 / 56.  4.100
  libavfilter     5. 40.101 /  5. 40.101
  libavresample   2.  1.  0 /  2.  1.  0
  libswscale      3.  1.101 /  3.  1.101
  libswresample   1.  2.101 /  1.  2.101
  libpostproc    53.  3.100 / 53.  3.100
Input #0, mov,mp4,m4a,3gp,3g2,mj2, from 'video.mp4':
  Metadata:
    major_brand     : isom
    minor_version   : 1
    compatible_brands: isomavc1mp42
    creation_time   : 2020-09-07 09:13:29
  Duration: 00:00:19.97, start: 0.000000, bitrate: 1865 kb/s
    Stream #0:0(und): Video: h264 (High) (avc1 / 0x31637661), yuv420p, 1280x720 [SAR 1:1 DAR 16:9], 1864 kb/s, 30 fps, 30 tbr, 30 tbn, 60 tbc (default)
    Metadata:
      creation_time   : 2020-09-07 09:13:14
Output #0, image2pipe, to 'pipe:':
  Metadata:
    major_brand     : isom
    minor_version   : 1
    compatible_brands: isomavc1mp42
    encoder         : Lavf56.40.101
    Stream #0:0(und): Video: pam, rgb24, 320x180 [SAR 1:1 DAR 16:9], q=2-31, 200 kb/s, 10 fps, 10 tbn, 10 tbc (default)
    Metadata:
      creation_time   : 2020-09-07 09:13:14
      encoder         : Lavc56.60.100 pam
Stream mapping:
  Stream #0:0 -> #0:0 (h264 (native) -> pam (native))
Press [q] to stop, [?] for help
frame=   81 fps=0.0 q=-0.0 size=   13674kB time=00:00:08.10 bitrate=13829.0kbits/s    frame=  200 fps=0.0 q=-0.0 Lsize=   33762kB time=00:00:20.00 bitrate=13829.0kbits/s    
video:33762kB audio:0kB subtitle:0kB other streams:0kB global headers:0kB muxing overhead: 0.000000%
]0;jasochen@sol30:~/CS3140/Lab5[jasochen@sol30 Lab5]$ ls
data.csv  [0m[01;32mLab5Task2.sh[0m  [01;35msample.gif[0m  [01;35mvideo.mp4[0m
]0;jasochen@sol30:~/CS3140/Lab5[jasochen@sol30 Lab5]$ display -version
Version: ImageMagick 6.9.10-68 Q16 x86_64 2020-04-01 https://imagemagick.org
Copyright: © 1999-2019 ImageMagick Studio LLC
License: https://imagemagick.org/script/license.php
Features: Cipher DPC Modules OpenMP(3.1) 
Delegates (built-in): bzlib cairo fontconfig freetype gslib jng jpeg lcms ltdl lzma openexr pangocairo png ps rsvg tiff wmf x xml zlib
]0;jasochen@sol30:~/CS3140/Lab5[jasochen@sol30 Lab5]$ display sample.gif
display: unable to open X server `' @ error/display.c/DisplayImageCommand/410.
]0;jasochen@sol30:~/CS3140/Lab5[jasochen@sol30 Lab5]$ logout
